<svg width="657.8px" height="122px" xmlns="http://www.w3.org/2000/svg" viewBox="-78.88124999999997 14 657.7624999999999 122" style="background: rgba(0, 0, 0, 0)" preserveAspectRatio="xMidYMid"><defs><linearGradient id="editing-gradient-gradient" x1="0" x2="1" y1="0.5" y2="0.5" gradientUnits="objectBoundingBox"><stop offset="0" stop-color="#51b3e6"></stop><stop offset="1" stop-color="#ff00ff"></stop></linearGradient></defs><g><g transform="matrix(1.3,0,0,1.4,-50.5,150.1)"><path d="M 6.9 -35.3 L -7 -35.3 L 1.1 -77.6 L 15.2 -77.6 L 6.9 -35.3 Z M 62.7 -34 L 62.7 -34 L 62.7 -34 Q 54.9 -34 54.9 -40.1 L 54.9 -40.1 L 54.9 -40.1 Q 54.9 -42.7 56 -47.8 L 56 -47.8 L 56 -47.8 Q 57.2 -52.9 57.5 -54.9 L 57.5 -54.9 L 57.5 -54.9 Q 58.4 -59.6 58.4 -61.1 L 58.4 -61.1 L 58.4 -61.1 Q 58.4 -64.3 56 -64.3 L 56 -64.3 L 56 -64.3 Q 54.4 -64.3 52.9 -62.1 L 52.9 -62.1 L 52.9 -62.1 Q 51.3 -59.9 50.6 -55.5 L 50.6 -55.5 L 46.7 -35.3 L 34.2 -34 L 37.6 -51.5 L 37.6 -51.5 Q 38.2 -54.3 38.7 -57.6 L 38.7 -57.6 L 38.7 -57.6 Q 39.2 -60.9 39.2 -61.4 L 39.2 -61.4 L 39.2 -61.4 Q 39.2 -64.3 37.1 -64.3 L 37.1 -64.3 L 37.1 -64.3 Q 35.6 -64.3 34 -62.1 L 34 -62.1 L 34 -62.1 Q 32.4 -60 31.5 -55.5 L 31.5 -55.5 L 27.6 -35.3 L 15 -34 L 21.7 -68 L 32.1 -69.2 L 31 -62.8 L 31 -62.8 Q 32.7 -66.2 35.8 -67.7 L 35.8 -67.7 L 35.8 -67.7 Q 38.9 -69.2 43.7 -69.2 L 43.7 -69.2 L 43.7 -69.2 Q 46.4 -69.2 48.2 -67.9 L 48.2 -67.9 L 48.2 -67.9 Q 50 -66.6 50.6 -64.4 L 50.6 -64.4 L 50.6 -64.4 Q 51.7 -66.6 54.4 -67.9 L 54.4 -67.9 L 54.4 -67.9 Q 57.2 -69.2 60.6 -69.2 L 60.6 -69.2 L 60.6 -69.2 Q 64.1 -69.2 65.8 -68.5 L 65.8 -68.5 L 65.8 -68.5 Q 67.5 -67.8 68.5 -66.6 L 68.5 -66.6 L 68.5 -66.6 Q 70.2 -64.3 70.2 -60.2 L 70.2 -60.2 L 70.2 -60.2 Q 70.2 -56.2 68.5 -47.8 L 68.5 -47.8 L 68.5 -47.8 Q 67.6 -43.7 67.6 -42.2 L 67.6 -42.2 L 67.6 -42.2 Q 67.6 -40.7 68.5 -39.8 L 68.5 -39.8 L 68.5 -39.8 Q 69.3 -38.9 70.6 -38.8 L 70.6 -38.8 L 70.6 -38.8 Q 70 -36.6 67.8 -35.3 L 67.8 -35.3 L 67.8 -35.3 Q 65.5 -34 62.7 -34 Z M 78.3 -37.2 L 78.3 -37.2 L 78.3 -37.2 Q 76.8 -38.9 76.1 -41.5 L 76.1 -41.5 L 76.1 -41.5 Q 75.5 -44.2 75.5 -48.4 L 75.5 -48.4 L 75.5 -48.4 Q 75.5 -52.7 76.9 -56.6 L 76.9 -56.6 L 76.9 -56.6 Q 78.4 -60.5 81.1 -63.4 L 81.1 -63.4 L 81.1 -63.4 Q 86.6 -69.2 95.7 -69.2 L 95.7 -69.2 L 95.7 -69.2 Q 99 -69.2 101.3 -68.2 L 101.3 -68.2 L 112.3 -69.2 L 107.5 -44.3 L 107.5 -44.3 Q 107.3 -43.5 107.3 -42.1 L 107.3 -42.1 L 107.3 -42.1 Q 107.3 -40.7 108.2 -39.8 L 108.2 -39.8 L 108.2 -39.8 Q 109.1 -38.9 110.3 -38.8 L 110.3 -38.8 L 110.3 -38.8 Q 109.7 -36.6 107.4 -35.3 L 107.4 -35.3 L 107.4 -35.3 Q 105 -34 102.4 -34 L 102.4 -34 L 102.4 -34 Q 99.8 -34 98 -35 L 98 -35 L 98 -35 Q 96.3 -36 95.8 -37.7 L 95.8 -37.7 L 95.8 -37.7 Q 94.7 -36.1 92.6 -35.1 L 92.6 -35.1 L 92.6 -35.1 Q 90.4 -34 87.5 -34 L 87.5 -34 L 87.5 -34 Q 84.6 -34 82.2 -34.8 L 82.2 -34.8 L 82.2 -34.8 Q 79.8 -35.6 78.3 -37.2 Z M 91.8 -63.2 L 91.8 -63.2 L 91.8 -63.2 Q 91.1 -62.1 90.4 -60.1 L 90.4 -60.1 L 90.4 -60.1 Q 89.8 -58.2 88.7 -53 L 88.7 -53 L 88.7 -53 Q 87.7 -47.7 87.7 -44 L 87.7 -44 L 87.7 -44 Q 87.7 -40.3 88.3 -39.2 L 88.3 -39.2 L 88.3 -39.2 Q 88.8 -38.1 89.9 -38.1 L 89.9 -38.1 L 89.9 -38.1 Q 91.9 -38.1 93.4 -40.1 L 93.4 -40.1 L 93.4 -40.1 Q 94.9 -42 95.5 -45.5 L 95.5 -45.5 L 98.9 -64.3 L 98.9 -64.3 Q 97.5 -65.4 96 -65.4 L 96 -65.4 L 96 -65.4 Q 94.4 -65.4 93.5 -64.9 L 93.5 -64.9 L 93.5 -64.9 Q 92.6 -64.4 91.8 -63.2 Z M 120 -62.1 L 120 -62.1 L 120 -62.1 Q 122.2 -65.1 125.5 -67.2 L 125.5 -67.2 L 125.5 -67.2 Q 128.8 -69.2 132.8 -69.2 L 132.8 -69.2 L 132.8 -69.2 Q 136.8 -69.2 138.8 -68 L 138.8 -68 L 151.3 -69.2 L 147 -44.7 L 147 -44.7 Q 144.7 -32.1 140 -27.2 L 140 -27.2 L 140 -27.2 Q 135.4 -22.5 126.6 -22.5 L 126.6 -22.5 L 126.6 -22.5 Q 119.9 -22.5 116 -24.6 L 116 -24.6 L 116 -24.6 Q 112.2 -26.7 112.2 -30.3 L 112.2 -30.3 L 112.2 -30.3 Q 112.2 -32.9 114.2 -34.4 L 114.2 -34.4 L 114.2 -34.4 Q 116.2 -35.9 119.2 -35.9 L 119.2 -35.9 L 119.2 -35.9 Q 121.9 -35.9 124 -34.7 L 124 -34.7 L 124 -34.7 Q 125.2 -34 125.8 -33.1 L 125.8 -33.1 L 125.8 -33.1 Q 124.3 -31.9 124.3 -29.8 L 124.3 -29.8 L 124.3 -29.8 Q 124.3 -27 126.9 -27 L 126.9 -27 L 126.9 -27 Q 131.1 -27 133.6 -37.1 L 133.6 -37.1 L 133.6 -37.1 Q 134.3 -39.9 134.9 -42.6 L 134.9 -42.6 L 134.9 -42.6 Q 132 -39.1 125.4 -39.1 L 125.4 -39.1 L 125.4 -39.1 Q 120.9 -39.1 118.3 -41.3 L 118.3 -41.3 L 118.3 -41.3 Q 115.7 -43.5 115.7 -48.6 L 115.7 -48.6 L 115.7 -48.6 Q 115.7 -51.8 116.7 -55.4 L 116.7 -55.4 L 116.7 -55.4 Q 117.8 -59 120 -62.1 Z M 128.3 -48.4 L 128.3 -48.4 L 128.3 -48.4 Q 128.3 -44 130.6 -44 L 130.6 -44 L 130.6 -44 Q 132.1 -44 133.6 -45.7 L 133.6 -45.7 L 133.6 -45.7 Q 134.7 -47 135.2 -49 L 135.2 -49 L 138.4 -65.5 L 138.4 -65.5 Q 138.1 -65.5 137.8 -65.7 L 137.8 -65.7 L 137.8 -65.7 Q 137.2 -65.9 136.3 -65.9 L 136.3 -65.9 L 136.3 -65.9 Q 132.4 -65.9 130.1 -59.5 L 130.1 -59.5 L 130.1 -59.5 Q 128.3 -54.5 128.3 -48.4 Z M 179.7 -46.1 L 179.7 -46.1 L 179.7 -46.1 Q 181.3 -45.1 181.3 -42.7 L 181.3 -42.7 L 181.3 -42.7 Q 181.3 -40.3 180.1 -38.7 L 180.1 -38.7 L 180.1 -38.7 Q 178.9 -37.2 176.9 -36.2 L 176.9 -36.2 L 176.9 -36.2 Q 172.8 -34 168.4 -34 L 168.4 -34 L 168.4 -34 Q 164 -34 161.4 -35 L 161.4 -35 L 161.4 -35 Q 158.8 -36 157.1 -37.8 L 157.1 -37.8 L 157.1 -37.8 Q 153.7 -41.1 153.7 -47.4 L 153.7 -47.4 L 153.7 -47.4 Q 153.7 -57 158.9 -62.9 L 158.9 -62.9 L 158.9 -62.9 Q 164.6 -69.2 174.3 -69.2 L 174.3 -69.2 L 174.3 -69.2 Q 180.4 -69.2 183.4 -66.7 L 183.4 -66.7 L 183.4 -66.7 Q 185.7 -64.8 185.7 -61.6 L 185.7 -61.6 L 185.7 -61.6 Q 185.7 -50.4 166.2 -50.4 L 166.2 -50.4 L 166.2 -50.4 Q 166 -48.7 166 -47.3 L 166 -47.3 L 166 -47.3 Q 166 -44.3 167.3 -43.2 L 167.3 -43.2 L 167.3 -43.2 Q 168.6 -42.1 171 -42.1 L 171 -42.1 L 171 -42.1 Q 173.4 -42.1 176 -43.2 L 176 -43.2 L 176 -43.2 Q 178.6 -44.3 179.7 -46.1 Z M 166.7 -53.1 L 166.7 -53.1 L 166.7 -53.1 Q 171.2 -53.1 173.8 -55.9 L 173.8 -55.9 L 173.8 -55.9 Q 176.5 -58.6 176.5 -62.9 L 176.5 -62.9 L 176.5 -62.9 Q 176.5 -64.4 175.9 -65.2 L 175.9 -65.2 L 175.9 -65.2 Q 175.4 -66 174.3 -66 L 174.3 -66 L 174.3 -66 Q 173.2 -66 172.3 -65.6 L 172.3 -65.6 L 172.3 -65.6 Q 171.3 -65.1 170.4 -63.7 L 170.4 -63.7 L 170.4 -63.7 Q 168 -60.5 166.7 -53.1 Z M 207 -57.8 L 207 -57.8 L 207 -57.8 Q 207.9 -60.2 207.9 -62.2 L 207.9 -62.2 L 207.9 -62.2 Q 207.9 -66 204.8 -66 L 204.8 -66 L 204.8 -66 Q 203.2 -66 201.9 -64.5 L 201.9 -64.5 L 201.9 -64.5 Q 200.6 -63.1 200.6 -61.3 L 200.6 -61.3 L 200.6 -61.3 Q 200.6 -60 201.6 -59 L 201.6 -59 L 201.6 -59 Q 203.1 -57.6 206.9 -55.3 L 206.9 -55.3 L 206.9 -55.3 Q 210.6 -53 212.1 -51.1 L 212.1 -51.1 L 212.1 -51.1 Q 213.5 -49.2 213.5 -46.6 L 213.5 -46.6 L 213.5 -46.6 Q 213.5 -44 212.3 -41.7 L 212.3 -41.7 L 212.3 -41.7 Q 211 -39.3 208.8 -37.6 L 208.8 -37.6 L 208.8 -37.6 Q 204 -34 196.3 -34 L 196.3 -34 L 196.3 -34 Q 192.1 -34 188.9 -36.2 L 188.9 -36.2 L 188.9 -36.2 Q 185.7 -38.3 185.7 -40.8 L 185.7 -40.8 L 185.7 -40.8 Q 185.7 -43.3 187.6 -44.8 L 187.6 -44.8 L 187.6 -44.8 Q 189.4 -46.3 192.1 -46.3 L 192.1 -46.3 L 192.1 -46.3 Q 194.8 -46.3 196.4 -45.2 L 196.4 -45.2 L 196.4 -45.2 Q 195.6 -43.1 195.6 -41.7 L 195.6 -41.7 L 195.6 -41.7 Q 195.6 -37.5 199.2 -37.5 L 199.2 -37.5 L 199.2 -37.5 Q 200.7 -37.5 201.7 -38.5 L 201.7 -38.5 L 201.7 -38.5 Q 202.8 -39.4 202.8 -41.1 L 202.8 -41.1 L 202.8 -41.1 Q 202.8 -44.3 197.3 -47.8 L 197.3 -47.8 L 197.3 -47.8 Q 192.8 -50.7 191.8 -51.9 L 191.8 -51.9 L 191.8 -51.9 Q 190 -53.9 190 -56.5 L 190 -56.5 L 190 -56.5 Q 190 -59.1 191.2 -61.5 L 191.2 -61.5 L 191.2 -61.5 Q 192.5 -63.9 194.7 -65.7 L 194.7 -65.7 L 194.7 -65.7 Q 199.4 -69.2 207.5 -69.2 L 207.5 -69.2 L 207.5 -69.2 Q 211.7 -69.2 214.1 -67.6 L 214.1 -67.6 L 214.1 -67.6 Q 216.6 -65.9 216.6 -63.1 L 216.6 -63.1 L 216.6 -63.1 Q 216.6 -60.3 214.9 -58.7 L 214.9 -58.7 L 214.9 -58.7 Q 213.2 -57.1 210.1 -57.1 L 210.1 -57.1 L 210.1 -57.1 Q 208 -57.1 207 -57.8 Z M 258.1 -55.9 L 271 -57.1 L 271 -57.1 Q 266.4 -47 266.4 -35.3 L 266.4 -35.3 L 266.4 -35.3 Q 264.6 -34 262.1 -34 L 262.1 -34 L 262.1 -34 Q 259.6 -34 258 -35.2 L 258 -35.2 L 258 -35.2 Q 256.4 -36.4 256.1 -37.6 L 256.1 -37.6 L 256.1 -37.6 Q 254.5 -36 251.9 -35 L 251.9 -35 L 251.9 -35 Q 249.3 -34 246.5 -34 L 246.5 -34 L 246.5 -34 Q 243.8 -34 241.4 -34.9 L 241.4 -34.9 L 241.4 -34.9 Q 239 -35.8 237.1 -37.8 L 237.1 -37.8 L 237.1 -37.8 Q 233 -42.2 233 -50.4 L 233 -50.4 L 233 -50.4 Q 233 -63.2 239.9 -70.9 L 239.9 -70.9 L 239.9 -70.9 Q 246.9 -78.8 259.4 -78.8 L 259.4 -78.8 L 259.4 -78.8 Q 268 -78.8 271.1 -74.4 L 271.1 -74.4 L 271.1 -74.4 Q 272.1 -73 272.1 -71.3 L 272.1 -71.3 L 272.1 -71.3 Q 272.1 -69.6 271.3 -68.1 L 271.3 -68.1 L 271.3 -68.1 Q 270.6 -66.7 269.4 -65.5 L 269.4 -65.5 L 269.4 -65.5 Q 266.7 -63 263.3 -63 L 263.3 -63 L 263.3 -63 Q 262 -63 260.7 -63.4 L 260.7 -63.4 L 260.7 -63.4 Q 260.9 -65.3 260.9 -67.6 L 260.9 -67.6 L 260.9 -67.6 Q 260.9 -69.8 260.8 -70.8 L 260.8 -70.8 L 260.8 -70.8 Q 260.6 -71.9 260.2 -72.7 L 260.2 -72.7 L 260.2 -72.7 Q 259.4 -74.4 257.6 -74.4 L 257.6 -74.4 L 257.6 -74.4 Q 255.8 -74.4 253.7 -72.5 L 253.7 -72.5 L 253.7 -72.5 Q 251.7 -70.5 250.1 -67.3 L 250.1 -67.3 L 250.1 -67.3 Q 246.6 -60.2 246.6 -51.5 L 246.6 -51.5 L 246.6 -51.5 Q 246.6 -47.5 248.1 -44.7 L 248.1 -44.7 L 248.1 -44.7 Q 249.8 -41.7 252.7 -41.7 L 252.7 -41.7 L 252.7 -41.7 Q 253.8 -41.7 254.7 -42.2 L 254.7 -42.2 L 254.7 -42.2 Q 255.6 -42.7 256 -43.1 L 256 -43.1 L 258.1 -55.9 Z M 276.9 -37.2 L 276.9 -37.2 L 276.9 -37.2 Q 275.4 -38.9 274.7 -41.5 L 274.7 -41.5 L 274.7 -41.5 Q 274.1 -44.2 274.1 -48.4 L 274.1 -48.4 L 274.1 -48.4 Q 274.1 -52.7 275.5 -56.6 L 275.5 -56.6 L 275.5 -56.6 Q 277 -60.5 279.7 -63.4 L 279.7 -63.4 L 279.7 -63.4 Q 285.2 -69.2 294.3 -69.2 L 294.3 -69.2 L 294.3 -69.2 Q 297.5 -69.2 299.9 -68.2 L 299.9 -68.2 L 310.9 -69.2 L 306.1 -44.3 L 306.1 -44.3 Q 305.9 -43.5 305.9 -42.1 L 305.9 -42.1 L 305.9 -42.1 Q 305.9 -40.7 306.8 -39.8 L 306.8 -39.8 L 306.8 -39.8 Q 307.7 -38.9 308.9 -38.8 L 308.9 -38.8 L 308.9 -38.8 Q 308.3 -36.6 306 -35.3 L 306 -35.3 L 306 -35.3 Q 303.6 -34 301 -34 L 301 -34 L 301 -34 Q 298.4 -34 296.6 -35 L 296.6 -35 L 296.6 -35 Q 294.9 -36 294.3 -37.7 L 294.3 -37.7 L 294.3 -37.7 Q 293.3 -36.1 291.1 -35.1 L 291.1 -35.1 L 291.1 -35.1 Q 289 -34 286.1 -34 L 286.1 -34 L 286.1 -34 Q 283.1 -34 280.8 -34.8 L 280.8 -34.8 L 280.8 -34.8 Q 278.4 -35.6 276.9 -37.2 Z M 290.4 -63.2 L 290.4 -63.2 L 290.4 -63.2 Q 289.7 -62.1 289 -60.1 L 289 -60.1 L 289 -60.1 Q 288.4 -58.2 287.3 -53 L 287.3 -53 L 287.3 -53 Q 286.3 -47.7 286.3 -44 L 286.3 -44 L 286.3 -44 Q 286.3 -40.3 286.9 -39.2 L 286.9 -39.2 L 286.9 -39.2 Q 287.4 -38.1 288.5 -38.1 L 288.5 -38.1 L 288.5 -38.1 Q 290.5 -38.1 292 -40.1 L 292 -40.1 L 292 -40.1 Q 293.5 -42 294.1 -45.5 L 294.1 -45.5 L 297.5 -64.3 L 297.5 -64.3 Q 296.1 -65.4 294.6 -65.4 L 294.6 -65.4 L 294.6 -65.4 Q 293 -65.4 292.1 -64.9 L 292.1 -64.9 L 292.1 -64.9 Q 291.1 -64.4 290.4 -63.2 Z M 329.6 -38.8 L 329.6 -38.8 L 329.6 -38.8 Q 327.6 -34 321.3 -34 L 321.3 -34 L 321.3 -34 Q 318.1 -34 316 -36.3 L 316 -36.3 L 316 -36.3 Q 314.4 -38.1 314.4 -40.3 L 314.4 -40.3 L 314.4 -40.3 Q 314.4 -45.1 316.6 -55.5 L 316.6 -55.5 L 321.3 -80.1 L 334.3 -81.4 L 328.1 -49 L 328.1 -49 Q 327 -44.3 327 -42.6 L 327 -42.6 L 327 -42.6 Q 327 -39 329.6 -38.8 Z M 350.3 -38.8 L 350.3 -38.8 L 350.3 -38.8 Q 348.4 -34 342 -34 L 342 -34 L 342 -34 Q 338.8 -34 336.8 -36.3 L 336.8 -36.3 L 336.8 -36.3 Q 335.1 -38.1 335.1 -40.3 L 335.1 -40.3 L 335.1 -40.3 Q 335.1 -45.1 337.4 -55.5 L 337.4 -55.5 L 342 -80.1 L 355 -81.4 L 348.8 -49 L 348.8 -49 Q 347.7 -44.3 347.7 -42.6 L 347.7 -42.6 L 347.7 -42.6 Q 347.7 -39 350.3 -38.8 Z M 381.7 -46.1 L 381.7 -46.1 L 381.7 -46.1 Q 383.3 -45.1 383.3 -42.7 L 383.3 -42.7 L 383.3 -42.7 Q 383.3 -40.3 382.1 -38.7 L 382.1 -38.7 L 382.1 -38.7 Q 380.9 -37.2 378.9 -36.2 L 378.9 -36.2 L 378.9 -36.2 Q 374.8 -34 370.4 -34 L 370.4 -34 L 370.4 -34 Q 366 -34 363.4 -35 L 363.4 -35 L 363.4 -35 Q 360.8 -36 359 -37.8 L 359 -37.8 L 359 -37.8 Q 355.7 -41.1 355.7 -47.4 L 355.7 -47.4 L 355.7 -47.4 Q 355.7 -57 360.9 -62.9 L 360.9 -62.9 L 360.9 -62.9 Q 366.5 -69.2 376.3 -69.2 L 376.3 -69.2 L 376.3 -69.2 Q 382.4 -69.2 385.4 -66.7 L 385.4 -66.7 L 385.4 -66.7 Q 387.7 -64.8 387.7 -61.6 L 387.7 -61.6 L 387.7 -61.6 Q 387.7 -50.4 368.2 -50.4 L 368.2 -50.4 L 368.2 -50.4 Q 367.9 -48.7 367.9 -47.3 L 367.9 -47.3 L 367.9 -47.3 Q 367.9 -44.3 369.3 -43.2 L 369.3 -43.2 L 369.3 -43.2 Q 370.6 -42.1 373 -42.1 L 373 -42.1 L 373 -42.1 Q 375.4 -42.1 378 -43.2 L 378 -43.2 L 378 -43.2 Q 380.6 -44.3 381.7 -46.1 Z M 368.6 -53.1 L 368.6 -53.1 L 368.6 -53.1 Q 373.2 -53.1 375.8 -55.9 L 375.8 -55.9 L 375.8 -55.9 Q 378.4 -58.6 378.4 -62.9 L 378.4 -62.9 L 378.4 -62.9 Q 378.4 -64.4 377.9 -65.2 L 377.9 -65.2 L 377.9 -65.2 Q 377.4 -66 376.3 -66 L 376.3 -66 L 376.3 -66 Q 375.2 -66 374.2 -65.6 L 374.2 -65.6 L 374.2 -65.6 Q 373.3 -65.1 372.4 -63.7 L 372.4 -63.7 L 372.4 -63.7 Q 370 -60.5 368.6 -53.1 Z M 409.9 -53.3 L 409.9 -53.3 L 409.9 -53.3 Q 412.2 -57.4 412.2 -61.6 L 412.2 -61.6 L 412.2 -61.6 Q 412.2 -64.3 410.2 -64.3 L 410.2 -64.3 L 410.2 -64.3 Q 408.6 -64.3 407 -61.7 L 407 -61.7 L 407 -61.7 Q 405.4 -59.1 404.9 -55.7 L 404.9 -55.7 L 401.5 -35.3 L 388.3 -34 L 394.8 -68 L 405.4 -69.2 L 404.2 -62.8 L 404.2 -62.8 Q 407.4 -69.2 414.4 -69.2 L 414.4 -69.2 L 414.4 -69.2 Q 418.1 -69.2 420.1 -67.3 L 420.1 -67.3 L 420.1 -67.3 Q 422.2 -65.4 422.2 -61.5 L 422.2 -61.5 L 422.2 -61.5 Q 422.2 -57.5 419.6 -55 L 419.6 -55 L 419.6 -55 Q 417 -52.5 412.6 -52.5 L 412.6 -52.5 L 412.6 -52.5 Q 410.6 -52.5 409.9 -53.3 Z M 443.5 -42.6 L 443.5 -42.6 L 443.5 -42.6 Q 440.2 -39.1 434.1 -39.1 L 434.1 -39.1 L 434.1 -39.1 Q 426.5 -39.1 424.9 -44.7 L 424.9 -44.7 L 424.9 -44.7 Q 424.4 -46.3 424.4 -48.2 L 424.4 -48.2 L 424.4 -48.2 Q 424.4 -50 424.8 -52 L 424.8 -52 L 427.8 -68 L 440.8 -69.2 L 437.3 -50.6 L 437.3 -50.6 Q 437.1 -49.8 436.9 -48.9 L 436.9 -48.9 L 436.9 -48.9 Q 436.7 -48 436.7 -47.1 L 436.7 -47.1 L 436.7 -47.1 Q 436.7 -46.1 437.1 -45.5 L 437.1 -45.5 L 437.1 -45.5 Q 437.4 -44.9 437.8 -44.5 L 437.8 -44.5 L 437.8 -44.5 Q 438.6 -44 440 -44 L 440 -44 L 440 -44 Q 441.4 -44 442.5 -45.7 L 442.5 -45.7 L 442.5 -45.7 Q 443.7 -47.4 444.3 -50.2 L 444.3 -50.2 L 447.8 -68 L 460.4 -69.2 L 455.6 -44.1 L 455.6 -44.1 Q 453.3 -31.8 448.4 -26.9 L 448.4 -26.9 L 448.4 -26.9 Q 445.9 -24.4 442.7 -23.5 L 442.7 -23.5 L 442.7 -23.5 Q 439.4 -22.5 435.3 -22.5 L 435.3 -22.5 L 435.3 -22.5 Q 428.6 -22.5 424.7 -24.6 L 424.7 -24.6 L 424.7 -24.6 Q 420.9 -26.7 420.9 -30.2 L 420.9 -30.2 L 420.9 -30.2 Q 420.9 -32.8 422.9 -34.3 L 422.9 -34.3 L 422.9 -34.3 Q 424.8 -35.8 427.9 -35.8 L 427.9 -35.8 L 427.9 -35.8 Q 430.6 -35.8 432.6 -34.7 L 432.6 -34.7 L 432.6 -34.7 Q 433.9 -34 434.4 -33.1 L 434.4 -33.1 L 434.4 -33.1 Q 433 -31.8 433 -29.7 L 433 -29.7 L 433 -29.7 Q 433 -26.9 435.5 -26.9 L 435.5 -26.9 L 435.5 -26.9 Q 439.8 -26.9 442.2 -36.6 L 442.2 -36.6 L 442.2 -36.6 Q 442.9 -39.5 443.5 -42.6 Z" fill="url(#editing-gradient-gradient)"></path></g></g><style>text {
  font-size: 64px;
  font-family: Arial Black;
  dominant-baseline: central;
  text-anchor: middle;
}</style></svg>